HIERARCHY
ROOT mixamorig:Hips
{
	OFFSET -0.000008 104.274872 1.554316
	CHANNELS 6 Xposition Yposition Zposition Xrotation Yrotation Zrotation
	JOINT mixamorig:Spine
	{
		OFFSET -0.000005 10.181595 0.131519
		CHANNELS 6 Xposition Yposition Zposition Xrotation Yrotation Zrotation
		JOINT mixamorig:Spine1
		{
			OFFSET -0.000000 9.893959 -1.470707
			CHANNELS 6 Xposition Yposition Zposition Xrotation Yrotation Zrotation
			JOINT mixamorig:Spine2
			{
				OFFSET -0.000000 9.220757 -1.370641
				CHANNELS 6 Xposition Yposition Zposition Xrotation Yrotation Zrotation
				JOINT mixamorig:Neck
				{
					OFFSET 0.000001 16.740417 -2.049036
					CHANNELS 6 Xposition Yposition Zposition Xrotation Yrotation Zrotation
					JOINT mixamorig:Head
					{
						OFFSET 0.000000 9.617874 1.685006
						CHANNELS 6 Xposition Yposition Zposition Xrotation Yrotation Zrotation
						JOINT mixamorig:HeadTop_End
						{
							OFFSET 0.000002 22.037354 7.501101
							CHANNELS 6 Xposition Yposition Zposition Xrotation Yrotation Zrotation
							End Site
							{
								OFFSET 0.000168 2310.654297 -282.823242
							}
						}
					}
				}
				JOINT mixamorig:RightShoulder
				{
					OFFSET -4.569970 11.014908 -2.160885
					CHANNELS 6 Xposition Yposition Zposition Xrotation Yrotation Zrotation
					JOINT mixamorig:RightArm
					{
						OFFSET -10.592851 -0.524811 -2.232101
						CHANNELS 6 Xposition Yposition Zposition Xrotation Yrotation Zrotation
						JOINT mixamorig:RightForeArm
						{
							OFFSET -27.841511 0.000031 -0.000004
							CHANNELS 6 Xposition Yposition Zposition Xrotation Yrotation Zrotation
							JOINT mixamorig:RightHand
							{
								OFFSET -28.328831 -0.000015 0.000015
								CHANNELS 6 Xposition Yposition Zposition Xrotation Yrotation Zrotation
								JOINT mixamorig:RightHandThumb1
								{
									OFFSET -2.464806 -1.573990 2.681852
									CHANNELS 6 Xposition Yposition Zposition Xrotation Yrotation Zrotation
									JOINT mixamorig:RightHandThumb2
									{
										OFFSET -3.215179 -1.872803 1.924282
										CHANNELS 6 Xposition Yposition Zposition Xrotation Yrotation Zrotation
										JOINT mixamorig:RightHandThumb3
										{
											OFFSET -2.654831 -1.527969 1.512609
											CHANNELS 6 Xposition Yposition Zposition Xrotation Yrotation Zrotation
											JOINT mixamorig:RightHandThumb4
											{
												OFFSET -2.018814 -1.152008 1.108052
												CHANNELS 6 Xposition Yposition Zposition Xrotation Yrotation Zrotation
												End Site
												{
													OFFSET -188.809540 -114.533607 132.431396
												}
											}
										}
									}
								}
								JOINT mixamorig:RightHandIndex1
								{
									OFFSET -9.108284 -0.517868 2.259835
									CHANNELS 6 Xposition Yposition Zposition Xrotation Yrotation Zrotation
									JOINT mixamorig:RightHandIndex2
									{
										OFFSET -3.699989 0.000000 0.001215
										CHANNELS 6 Xposition Yposition Zposition Xrotation Yrotation Zrotation
										JOINT mixamorig:RightHandIndex3
										{
											OFFSET -2.850006 0.000031 -0.000522
											CHANNELS 6 Xposition Yposition Zposition Xrotation Yrotation Zrotation
											JOINT mixamorig:RightHandIndex4
											{
												OFFSET -2.772186 -0.000015 -0.000020
												CHANNELS 6 Xposition Yposition Zposition Xrotation Yrotation Zrotation
												End Site
												{
													OFFSET -277.218445 0.000000 -0.050231
												}
											}
										}
									}
								}
								JOINT mixamorig:RightHandMiddle1
								{
									OFFSET -9.532516 -0.000031 -0.000023
									CHANNELS 6 Xposition Yposition Zposition Xrotation Yrotation Zrotation
									JOINT mixamorig:RightHandMiddle2
									{
										OFFSET -3.700005 -0.000015 0.003713
										CHANNELS 6 Xposition Yposition Zposition Xrotation Yrotation Zrotation
										JOINT mixamorig:RightHandMiddle3
										{
											OFFSET -2.949974 0.000015 -0.002054
											CHANNELS 6 Xposition Yposition Zposition Xrotation Yrotation Zrotation
											JOINT mixamorig:RightHandMiddle4
											{
												OFFSET -2.946640 0.000000 -0.000156
												CHANNELS 6 Xposition Yposition Zposition Xrotation Yrotation Zrotation
												End Site
												{
													OFFSET -294.664337 0.000000 -0.113670
												}
											}
										}
									}
								}
								JOINT mixamorig:RightHandRing1
								{
									OFFSET -9.103600 -0.043076 -1.865134
									CHANNELS 6 Xposition Yposition Zposition Xrotation Yrotation Zrotation
									JOINT mixamorig:RightHandRing2
									{
										OFFSET -3.379288 0.000000 -0.001055
										CHANNELS 6 Xposition Yposition Zposition Xrotation Yrotation Zrotation
										JOINT mixamorig:RightHandRing3
										{
											OFFSET -2.889687 -0.000015 0.000379
											CHANNELS 6 Xposition Yposition Zposition Xrotation Yrotation Zrotation
											JOINT mixamorig:RightHandRing4
											{
												OFFSET -2.638809 -0.000015 0.000941
												CHANNELS 6 Xposition Yposition Zposition Xrotation Yrotation Zrotation
												End Site
												{
													OFFSET -263.880371 0.000000 0.516020
												}
											}
										}
									}
								}
								JOINT mixamorig:RightHandPinky1
								{
									OFFSET -8.076683 -0.486710 -3.806280
									CHANNELS 6 Xposition Yposition Zposition Xrotation Yrotation Zrotation
									JOINT mixamorig:RightHandPinky2
									{
										OFFSET -3.600014 -0.000015 -0.003747
										CHANNELS 6 Xposition Yposition Zposition Xrotation Yrotation Zrotation
										JOINT mixamorig:RightHandPinky3
										{
											OFFSET -2.099983 0.000000 -0.005739
											CHANNELS 6 Xposition Yposition Zposition Xrotation Yrotation Zrotation
											JOINT mixamorig:RightHandPinky4
											{
												OFFSET -2.115768 -0.000031 -0.003680
												CHANNELS 6 Xposition Yposition Zposition Xrotation Yrotation Zrotation
												End Site
												{
													OFFSET -211.577087 0.000000 -0.350686
												}
											}
										}
									}
								}
							}
						}
					}
				}
				JOINT mixamorig:LeftShoulder
				{
					OFFSET 4.570447 11.014725 -2.160855
					CHANNELS 6 Xposition Yposition Zposition Xrotation Yrotation Zrotation
					JOINT mixamorig:LeftArm
					{
						OFFSET 10.592371 -0.524597 -2.232119
						CHANNELS 6 Xposition Yposition Zposition Xrotation Yrotation Zrotation
						JOINT mixamorig:LeftForeArm
						{
							OFFSET 27.841532 -0.000031 0.000026
							CHANNELS 6 Xposition Yposition Zposition Xrotation Yrotation Zrotation
							JOINT mixamorig:LeftHand
							{
								OFFSET 28.328846 -0.000061 0.000022
								CHANNELS 6 Xposition Yposition Zposition Xrotation Yrotation Zrotation
								JOINT mixamorig:LeftHandThumb1
								{
									OFFSET 2.466141 -1.576172 2.681732
									CHANNELS 6 Xposition Yposition Zposition Xrotation Yrotation Zrotation
									JOINT mixamorig:LeftHandThumb2
									{
										OFFSET 3.217812 -1.872070 1.916482
										CHANNELS 6 Xposition Yposition Zposition Xrotation Yrotation Zrotation
										JOINT mixamorig:LeftHandThumb3
										{
											OFFSET 2.656029 -1.528778 1.514513
											CHANNELS 6 Xposition Yposition Zposition Xrotation Yrotation Zrotation
											JOINT mixamorig:LeftHandThumb4
											{
												OFFSET 2.020889 -1.154053 1.115139
												CHANNELS 6 Xposition Yposition Zposition Xrotation Yrotation Zrotation
												End Site
												{
													OFFSET 190.885437 -115.081749 130.048782
												}
											}
										}
									}
								}
								JOINT mixamorig:LeftHandIndex1
								{
									OFFSET 9.109314 -0.518021 2.259871
									CHANNELS 6 Xposition Yposition Zposition Xrotation Yrotation Zrotation
									JOINT mixamorig:LeftHandIndex2
									{
										OFFSET 3.699989 0.000000 -0.000322
										CHANNELS 6 Xposition Yposition Zposition Xrotation Yrotation Zrotation
										JOINT mixamorig:LeftHandIndex3
										{
											OFFSET 2.850006 0.000000 0.000352
											CHANNELS 6 Xposition Yposition Zposition Xrotation Yrotation Zrotation
											JOINT mixamorig:LeftHandIndex4
											{
												OFFSET 2.774864 -0.000031 -0.000027
												CHANNELS 6 Xposition Yposition Zposition Xrotation Yrotation Zrotation
												End Site
												{
													OFFSET 277.486267 0.000000 -0.009857
												}
											}
										}
									}
								}
								JOINT mixamorig:LeftHandMiddle1
								{
									OFFSET 9.533394 0.000061 0.000044
									CHANNELS 6 Xposition Yposition Zposition Xrotation Yrotation Zrotation
									JOINT mixamorig:LeftHandMiddle2
									{
										OFFSET 3.699989 -0.000015 -0.000231
										CHANNELS 6 Xposition Yposition Zposition Xrotation Yrotation Zrotation
										JOINT mixamorig:LeftHandMiddle3
										{
											OFFSET 2.949997 -0.000015 -0.000059
											CHANNELS 6 Xposition Yposition Zposition Xrotation Yrotation Zrotation
											JOINT mixamorig:LeftHandMiddle4
											{
												OFFSET 2.952896 0.000031 0.000063
												CHANNELS 6 Xposition Yposition Zposition Xrotation Yrotation Zrotation
												End Site
												{
													OFFSET 295.289337 0.000000 0.022810
												}
											}
										}
									}
								}
								JOINT mixamorig:LeftHandRing1
								{
									OFFSET 9.104523 -0.042999 -1.865074
									CHANNELS 6 Xposition Yposition Zposition Xrotation Yrotation Zrotation
									JOINT mixamorig:LeftHandRing2
									{
										OFFSET 3.150009 -0.000031 0.000043
										CHANNELS 6 Xposition Yposition Zposition Xrotation Yrotation Zrotation
										JOINT mixamorig:LeftHandRing3
										{
											OFFSET 2.949982 -0.000015 0.000040
											CHANNELS 6 Xposition Yposition Zposition Xrotation Yrotation Zrotation
											JOINT mixamorig:LeftHandRing4
											{
												OFFSET 2.644348 0.000000 0.000057
												CHANNELS 6 Xposition Yposition Zposition Xrotation Yrotation Zrotation
												End Site
												{
													OFFSET 264.434631 0.000000 0.012105
												}
											}
										}
									}
								}
								JOINT mixamorig:LeftHandPinky1
								{
									OFFSET 8.077789 -0.486847 -3.806259
									CHANNELS 6 Xposition Yposition Zposition Xrotation Yrotation Zrotation
									JOINT mixamorig:LeftHandPinky2
									{
										OFFSET 3.599953 0.000031 0.014727
										CHANNELS 6 Xposition Yposition Zposition Xrotation Yrotation Zrotation
										JOINT mixamorig:LeftHandPinky3
										{
											OFFSET 2.100021 0.000015 0.007705
											CHANNELS 6 Xposition Yposition Zposition Xrotation Yrotation Zrotation
											JOINT mixamorig:LeftHandPinky4
											{
												OFFSET 2.125504 0.000031 0.007517
												CHANNELS 6 Xposition Yposition Zposition Xrotation Yrotation Zrotation
												End Site
												{
													OFFSET 212.550781 0.000000 0.625752
												}
											}
										}
									}
								}
							}
						}
					}
				}
			}
		}
	}
	JOINT mixamorig:RightUpLeg
	{
		OFFSET -8.207787 -6.751648 -1.599560
		CHANNELS 6 Xposition Yposition Zposition Xrotation Yrotation Zrotation
		JOINT mixamorig:RightLeg
		{
			OFFSET -0.000002 -44.370117 0.345942
			CHANNELS 6 Xposition Yposition Zposition Xrotation Yrotation Zrotation
			JOINT mixamorig:RightFoot
			{
				OFFSET 0.000003 -44.423679 -3.043532
				CHANNELS 6 Xposition Yposition Zposition Xrotation Yrotation Zrotation
				JOINT mixamorig:RightToeBase
				{
					OFFSET -0.000002 -8.728671 10.710558
					CHANNELS 6 Xposition Yposition Zposition Xrotation Yrotation Zrotation
					JOINT mixamorig:RightToe_End
					{
						OFFSET -0.000001 -0.000679 9.278119
						CHANNELS 6 Xposition Yposition Zposition Xrotation Yrotation Zrotation
						End Site
						{
							OFFSET 0.000000 -0.067690 927.812134
						}
					}
				}
			}
		}
	}
	JOINT mixamorig:LeftUpLeg
	{
		OFFSET 8.207793 -6.751686 -1.599556
		CHANNELS 6 Xposition Yposition Zposition Xrotation Yrotation Zrotation
		JOINT mixamorig:LeftLeg
		{
			OFFSET -0.000004 -44.370014 0.346954
			CHANNELS 6 Xposition Yposition Zposition Xrotation Yrotation Zrotation
			JOINT mixamorig:LeftFoot
			{
				OFFSET -0.000001 -44.423672 -3.044401
				CHANNELS 6 Xposition Yposition Zposition Xrotation Yrotation Zrotation
				JOINT mixamorig:LeftToeBase
				{
					OFFSET -0.000002 -8.728669 10.710558
					CHANNELS 6 Xposition Yposition Zposition Xrotation Yrotation Zrotation
					JOINT mixamorig:LeftToe_End
					{
						OFFSET -0.000003 -0.000679 9.278133
						CHANNELS 6 Xposition Yposition Zposition Xrotation Yrotation Zrotation
						End Site
						{
							OFFSET 0.000000 -0.068021 927.813477
						}
					}
				}
			}
		}
	}
}
MOTION
Frames: 3
Frame Time: 0.033333
0.000006 104.270477 1.554256 0.000010 0.000003 -0.000113 -0.000005 10.181587 0.131522 0.000001 -0.000003 0.000084 -0.000000 9.893967 -1.470711 0.000001 0.000000 -0.000000 -0.000000 9.220802 -1.370642 0.000000 -0.000000 -0.000000 0.000001 16.740433 -2.049030 0.000000 -0.000000 -0.000000 0.000000 9.617859 1.685014 0.000000 0.000000 0.000000 0.000002 22.037384 7.501101 0.000000 -0.000000 0.000000 -4.569968 11.014880 -2.160881 0.000008 0.000001 -0.000038 -10.592879 -0.524749 -2.231921 74.862090 26.014061 -20.053616 -27.841522 0.000015 0.000539 -59.862694 108.286967 77.084757 -28.328833 0.000006 0.000023 -0.000322 -0.000047 0.000008 -2.464426 -1.573848 2.682360 -39.199111 -160.240650 10.705961 -3.215265 -1.872565 1.924652 155.631625 32.910826 10.662875 -2.654936 -1.527906 1.513091 153.433329 25.565349 -37.533061 -2.018835 -1.151997 1.108065 0.000002 -0.000002 0.000005 -9.108397 -0.517563 2.260121 99.494833 17.862219 -21.086570 -3.700085 0.000314 0.001512 95.249044 15.611164 -17.063517 -2.850084 0.000367 -0.000275 93.590209 12.642963 -13.452807 -2.772158 -0.000015 -0.000017 0.000002 0.000000 0.000001 -9.532579 0.000278 0.000229 91.468384 14.570622 -15.088525 -3.700059 0.000331 0.003967 93.010627 11.055950 -11.550208 -2.950062 0.000337 -0.001799 91.984350 11.070153 -11.450490 -2.946637 -0.000013 -0.000154 -0.000005 0.000001 -0.000001 -9.103698 -0.042750 -1.864890 89.964151 15.789466 -15.735658 -3.379323 0.000333 -0.000806 94.159875 8.377201 -9.024435 -2.889732 0.000372 0.000632 96.055983 5.807198 -6.504405 -2.638814 -0.000002 0.000937 -0.000002 0.000001 0.000002 -8.076741 -0.486377 -3.806056 79.759514 14.794755 -12.258068 -3.600044 0.000281 -0.003549 83.278325 7.292912 -6.174300 -2.099997 0.000317 -0.005513 83.833264 4.896826 -4.201742 -2.115766 -0.000055 -0.003679 0.000002 -0.000000 -0.000004 4.570446 11.014691 -2.160851 -0.000018 0.000010 -0.000021 10.592381 -0.524488 -2.232327 73.196153 -6.270681 4.658869 27.841822 0.000072 -0.000227 99.027819 -72.114134 80.920161 28.328846 -0.000028 0.000015 0.000021 -0.000089 0.000000 2.466188 -1.576155 2.681875 -1.474583 150.881543 -71.380900 3.217655 -1.871654 1.916390 147.888800 -35.823386 -45.806117 2.656109 -1.528610 1.514452 146.680635 -26.472391 41.208140 2.020891 -1.154073 1.115149 0.000006 0.000000 0.000003 9.109376 -0.517835 2.259750 93.219419 -14.824133 15.658132 3.700046 0.000166 -0.000460 90.427156 -12.659537 12.770465 2.850048 0.000215 0.000203 89.320453 -10.847912 10.719491 2.774881 -0.000046 -0.000020 -0.000000 -0.000002 -0.000001 9.533465 0.000237 -0.000075 94.836808 -13.391346 14.550844 3.700058 0.000202 -0.000382 95.195475 -9.762271 10.682217 2.950073 0.000199 -0.000187 96.135705 -14.396213 16.009992 2.952872 -0.000015 0.000065 0.000006 -0.000000 0.000000 9.104593 -0.042813 -1.865223 93.164443 -12.025384 12.705126 3.150043 0.000235 -0.000105 97.971229 -8.933595 10.267039 2.950022 0.000203 -0.000068 100.330104 -12.556922 15.028549 2.644327 0.000032 0.000056 0.000002 -0.000001 -0.000001 8.077839 -0.486700 -3.806391 82.285919 -13.351064 12.175269 3.599994 0.000196 0.014564 85.805911 -11.369756 11.034982 2.100039 0.000205 0.007560 89.732286 -11.998545 12.422587 2.125512 -0.000000 0.007516 0.000002 0.000000 -0.000000 -8.207786 -6.751667 -1.599560 -0.077001 -0.000003 0.000080 -0.000002 -44.370110 0.345938 0.153719 -0.000000 -0.000000 0.000000 -44.423679 -3.043532 -0.076700 0.000000 -0.000002 -0.000006 -8.728667 10.710559 -0.000009 -0.000000 -0.000000 -0.000001 -0.000679 9.278123 0.000000 -0.000000 -0.000000 8.207792 -6.751710 -1.599556 -0.074518 -0.000003 0.000081 -0.000002 -44.370014 0.346960 0.148822 0.000002 0.000000 -0.000001 -44.423664 -3.044403 -0.074314 0.000000 -0.000002 -0.000004 -8.728671 10.710558 0.000007 -0.000000 -0.000000 0.000000 -0.000680 9.278137 -0.000000 0.000000 -0.000001 
0.000006 104.270477 1.554256 0.000010 0.000003 -0.000113 -0.000005 10.181587 0.131522 0.000001 -0.000003 0.000084 -0.000000 9.893967 -1.470711 0.000001 0.000000 -0.000000 -0.000000 9.220802 -1.370642 0.000000 -0.000000 -0.000000 0.000001 16.740433 -2.049030 0.000000 -0.000000 -0.000000 0.000000 9.617859 1.685014 0.000000 0.000000 0.000000 0.000002 22.037384 7.501101 0.000000 -0.000000 0.000000 -4.569968 11.014880 -2.160881 0.000008 0.000001 -0.000038 -10.592878 -0.524731 -2.231942 74.469354 22.043257 -16.840251 -27.841530 0.000011 0.000544 -58.869482 107.664866 75.328585 -28.328823 0.000007 0.000031 -0.000321 -0.000047 0.000008 -2.464435 -1.573802 2.682333 -45.702080 -163.493651 -4.295401 -3.215262 -1.872540 1.924613 149.970245 33.032103 19.385400 -2.654943 -1.527856 1.513059 147.752537 27.601315 -28.860975 -2.018831 -1.152019 1.108068 -0.000002 -0.000001 0.000004 -9.108385 -0.517547 2.260114 98.569807 14.652636 -17.047095 -3.700062 0.000318 0.001516 95.263681 13.156242 -14.385563 -2.850076 0.000370 -0.000277 94.224413 10.380371 -11.169538 -2.772164 -0.000015 -0.000015 0.000001 0.000000 0.000000 -9.532600 0.000279 0.000229 93.691529 13.591674 -14.635436 -3.700066 0.000329 0.003967 93.872931 11.924570 -12.651516 -2.950068 0.000335 -0.001797 95.885433 11.339454 -12.551266 -2.946608 -0.000014 -0.000152 0.000002 -0.000000 -0.000001 -9.103700 -0.042741 -1.864881 90.564183 15.612262 -15.720396 -3.379307 0.000331 -0.000806 93.354903 9.092303 -9.656653 -2.889741 0.000350 0.000657 98.862207 5.841789 -6.873458 -2.638817 -0.000018 0.000939 -0.000004 0.000000 0.000000 -8.076746 -0.486375 -3.806053 82.162948 14.346901 -12.394541 -3.600033 0.000285 -0.003549 84.258204 6.201914 -5.298708 -2.100024 0.000327 -0.005503 88.100049 3.539782 -3.218641 -2.115759 -0.000043 -0.003676 0.000002 -0.000003 -0.000004 4.570446 11.014691 -2.160851 -0.000018 0.000010 -0.000021 10.592370 -0.524504 -2.232300 73.348712 0.547219 -0.407421 27.841816 0.000056 -0.000208 99.442575 -72.187702 81.411750 28.328823 -0.000029 0.000025 0.000017 -0.000089 0.000000 2.466242 -1.576082 2.681852 6.912204 163.692546 -94.855563 3.217781 -1.871691 1.916390 164.767741 -33.494418 -6.199663 2.656108 -1.528655 1.514470 148.221867 -24.832812 52.365633 2.020871 -1.154069 1.115144 0.000000 0.000002 0.000008 9.109386 -0.517835 2.259747 95.145730 -19.155882 20.906432 3.700030 0.000175 -0.000466 91.626189 -11.604394 11.953253 2.850045 0.000210 0.000201 89.717260 -8.214838 8.173301 2.774885 -0.000032 -0.000019 -0.000003 0.000001 0.000001 9.533471 0.000221 -0.000071 94.152723 -17.693742 18.991901 3.700061 0.000213 -0.000379 97.101234 -8.578134 9.705090 2.950032 0.000218 -0.000214 97.443003 -9.131399 10.398601 2.952868 -0.000027 0.000061 0.000004 -0.000001 -0.000001 9.104603 -0.042835 -1.865202 93.128967 -16.907981 17.844692 3.150058 0.000235 -0.000100 99.748301 -10.156204 12.039121 2.950002 0.000224 -0.000082 100.243838 -9.274266 11.092098 2.644324 0.000032 0.000058 0.000002 -0.000001 0.000001 8.077860 -0.486710 -3.806396 84.164801 -18.217009 17.016009 3.600021 0.000191 0.014569 85.675024 -14.809757 14.223360 2.100024 0.000212 0.007551 86.940119 -11.389167 11.254241 2.125503 -0.000018 0.007518 -0.000001 -0.000001 0.000000 -8.207786 -6.751667 -1.599560 -0.077001 -0.000003 0.000080 -0.000002 -44.370110 0.345938 0.153719 -0.000000 -0.000000 0.000000 -44.423679 -3.043532 -0.076700 0.000000 -0.000002 -0.000006 -8.728667 10.710559 -0.000009 -0.000000 -0.000000 -0.000001 -0.000679 9.278123 0.000000 -0.000000 -0.000000 8.207792 -6.751710 -1.599556 -0.074518 -0.000003 0.000081 -0.000002 -44.370014 0.346960 0.148822 0.000002 0.000000 -0.000001 -44.423664 -3.044403 -0.074314 0.000000 -0.000002 -0.000004 -8.728671 10.710558 0.000007 -0.000000 -0.000000 0.000000 -0.000680 9.278137 -0.000000 0.000000 -0.000001 
0.000006 104.270477 1.554256 0.000010 0.000003 -0.000113 -0.000005 10.181587 0.131522 0.000001 -0.000003 0.000084 -0.000000 9.893967 -1.470711 0.000001 0.000000 -0.000000 -0.000000 9.220802 -1.370642 0.000000 -0.000000 -0.000000 0.000001 16.740433 -2.049030 0.000000 -0.000000 -0.000000 0.000000 9.617859 1.685014 0.000000 0.000000 0.000000 0.000002 22.037384 7.501101 0.000000 -0.000000 0.000000 -4.569968 11.014880 -2.160881 0.000008 0.000001 -0.000038 -10.592873 -0.524769 -2.231893 73.949311 32.428867 -24.698094 -27.841532 0.000020 0.000524 -57.642979 104.768811 71.061432 -28.328815 0.000007 0.000026 -0.000320 -0.000045 0.000008 -2.464415 -1.573797 2.682345 -44.454669 -162.347285 -1.356734 -3.215266 -1.872553 1.924630 152.007977 31.724132 6.951497 -2.654953 -1.527872 1.513064 145.714586 27.895536 -28.523251 -2.018815 -1.152004 1.108069 -0.000003 -0.000005 0.000000 -9.108384 -0.517542 2.260132 99.664358 14.555847 -17.261174 -3.700073 0.000324 0.001508 97.045281 11.323492 -12.771518 -2.850060 0.000378 -0.000270 95.740831 8.345536 -9.221997 -2.772149 -0.000014 -0.000019 -0.000001 -0.000001 0.000000 -9.532584 0.000278 0.000242 92.759317 13.279614 -14.073865 -3.700067 0.000340 0.003969 92.977364 10.448885 -10.905398 -2.950030 0.000343 -0.001816 94.936727 9.964266 -10.849311 -2.946635 -0.000000 -0.000155 -0.000002 -0.000000 -0.000002 -9.103706 -0.042750 -1.864880 89.657441 15.311957 -15.178132 -3.379317 0.000329 -0.000807 92.656516 9.975916 -10.465185 -2.889751 0.000348 0.000654 98.375747 6.521570 -7.601730 -2.638810 -0.000027 0.000941 -0.000002 -0.000001 0.000001 -8.076746 -0.486377 -3.806045 81.226167 14.395080 -12.234325 -3.600050 0.000293 -0.003544 83.153223 8.029755 -6.811886 -2.100013 0.000323 -0.005509 87.778292 5.091808 -4.688935 -2.115777 -0.000012 -0.003679 -0.000002 0.000001 -0.000006 4.570446 11.014691 -2.160851 -0.000018 0.000010 -0.000021 10.592398 -0.524479 -2.232355 72.335009 -12.456759 9.122943 27.841825 0.000053 -0.000193 100.789605 -73.975163 84.624043 28.328838 -0.000029 0.000016 0.000023 -0.000089 0.000000 2.466274 -1.575984 2.681821 20.124655 173.252680 -118.331511 3.217862 -1.871813 1.916419 173.673119 -20.089251 38.612398 2.656108 -1.528660 1.514485 150.432403 -23.755103 54.703125 2.020907 -1.154058 1.115146 -0.000001 0.000007 0.000002 9.109400 -0.517838 2.259753 97.839858 -20.580919 23.515067 3.700047 0.000187 -0.000478 93.694035 -13.886616 14.820308 2.850046 0.000222 0.000200 91.123835 -9.937684 10.132250 2.774898 -0.000028 -0.000027 0.000003 0.000001 -0.000001 9.533493 0.000231 -0.000098 96.364434 -18.659085 20.800385 3.700055 0.000217 -0.000383 99.508951 -10.262521 12.108640 2.950040 0.000216 -0.000212 99.679323 -9.286354 10.998000 2.952865 -0.000017 0.000058 0.000003 0.000001 0.000000 9.104611 -0.042826 -1.865218 95.653494 -17.987257 19.822625 3.150064 0.000222 -0.000085 100.765624 -12.207520 14.724044 2.950022 0.000219 -0.000089 100.410693 -9.714431 11.651606 2.644326 0.000015 0.000058 -0.000002 -0.000000 -0.000000 8.077868 -0.486703 -3.806410 86.717700 -19.324968 18.836125 3.600012 0.000199 0.014582 85.314103 -15.830787 15.083021 2.100043 0.000195 0.007554 85.744904 -11.314567 10.953215 2.125510 0.000000 0.007518 0.000001 -0.000004 0.000001 -8.207786 -6.751667 -1.599560 -0.077001 -0.000003 0.000080 -0.000002 -44.370110 0.345938 0.153719 -0.000000 -0.000000 0.000000 -44.423679 -3.043532 -0.076700 0.000000 -0.000002 -0.000006 -8.728667 10.710559 -0.000009 -0.000000 -0.000000 -0.000001 -0.000679 9.278123 0.000000 -0.000000 -0.000000 8.207792 -6.751710 -1.599556 -0.074518 -0.000003 0.000081 -0.000002 -44.370014 0.346960 0.148822 0.000002 0.000000 -0.000001 -44.423664 -3.044403 -0.074314 0.000000 -0.000002 -0.000004 -8.728671 10.710558 0.000007 -0.000000 -0.000000 0.000000 -0.000680 9.278137 -0.000000 0.000000 -0.000001 
